<?xml version="1.0" encoding="UTF-8" standalone="no"?>
<svg
   height="440.49"
   viewBox="0 0 135.67 116.55"
   width="512.78"
   version="1.1"
   id="svg1116"
   sodipodi:docname="base.svg"
   inkscape:version="1.1.1 (3bf5ae0d25, 2021-09-20)"
   xmlns:inkscape="http://www.inkscape.org/namespaces/inkscape"
   xmlns:sodipodi="http://sodipodi.sourceforge.net/DTD/sodipodi-0.dtd"
   xmlns:xlink="http://www.w3.org/1999/xlink"
   xmlns="http://www.w3.org/2000/svg"
   xmlns:svg="http://www.w3.org/2000/svg">
  <defs
     id="defs1120">
    <style
       type="text/css"
       id="style4825"><![CDATA[
    .fil0 {fill:#E8E8E8;fill-rule:nonzero}
   ]]></style>
  </defs>
  <sodipodi:namedview
     id="namedview1118"
     pagecolor="#505050"
     bordercolor="#eeeeee"
     borderopacity="1"
     inkscape:pageshadow="0"
     inkscape:pageopacity="0"
     inkscape:pagecheckerboard="0"
     showgrid="false"
     inkscape:zoom="1.8888057"
     inkscape:cx="178.94906"
     inkscape:cy="126.7997"
     inkscape:window-width="1920"
     inkscape:window-height="1017"
     inkscape:window-x="1912"
     inkscape:window-y="-8"
     inkscape:window-maximized="1"
     inkscape:current-layer="g1114"
     inkscape:snap-bbox="true"
     inkscape:bbox-paths="true"
     inkscape:object-paths="true"
     inkscape:snap-intersection-paths="true"
     inkscape:bbox-nodes="true"
     inkscape:snap-bbox-edge-midpoints="true"
     inkscape:snap-bbox-midpoints="true"
     inkscape:snap-object-midpoints="true" />
  <linearGradient
     id="a">
    <stop
       offset="0"
       stop-color="#020303"
       id="stop984" />
    <stop
       offset=".61192"
       stop-color="#1f1f1f"
       stop-opacity=".99608"
       id="stop986" />
    <stop
       offset=".67218"
       stop-color="#363638"
       stop-opacity=".99608"
       id="stop988" />
    <stop
       offset=".67316"
       stop-opacity=".99608"
       id="stop990" />
    <stop
       offset=".6768"
       stop-opacity=".99608"
       id="stop992" />
    <stop
       offset=".67763"
       stop-color="#e8eaf7"
       id="stop994" />
    <stop
       offset=".79131"
       stop-color="#dfe0ed"
       id="stop996" />
    <stop
       offset="1"
       stop-color="#d3d5e0"
       id="stop998" />
  </linearGradient>
  <radialGradient
     id="b"
     cx="84.308026"
     cy="70.081"
     gradientUnits="userSpaceOnUse"
     r="12.558"
     xlink:href="#a" />
  <radialGradient
     id="c"
     cx="47.515"
     cy="70.081"
     gradientUnits="userSpaceOnUse"
     r="12.558"
     xlink:href="#a" />
  <filter
     id="d"
     color-interpolation-filters="sRGB"
     height="1.0330041"
     width="1.0330428"
     x="-0.016522366"
     y="-0.016505601">
    <feGaussianBlur
       stdDeviation=".11070601"
       id="feGaussianBlur1003" />
  </filter>
  <g
     stroke="#000"
     stroke-width=".2"
     transform="translate(1.9107 -9.4731)"
     id="g1012">
    <path
       d="m56.852 77.419c3.1895-.97612 17.337-.26799 17.337-.26799s2.0009.63153 3.7422 1.8206c8.9083 2.169 7.7595-.02726 12.298 2.2092 9.842 4.9272 13.476 7.1756 17.016 23.303 1.2964 5.9056 4.1228 21.382 14.783 21.426 5.33.0224 12.564-1.6551 11.536-26.696-.50492-12.29-.96457-20.876-2.7419-46.005-.2611-3.6916-5.6547-13.971-8.1387-16.172-5.7701-5.415-10.463-7.343-17.372-7.3662-27.005 0-51.181.21993-78.114.21993-8.0037 0-11.32 2.0652-15.824 6.0764-3.2073 2.8568-6.2589 5.6538-7.8197 9.1536s-2.4123 5.7955-2.7138 9.5946c-1.2138 15.294-1.4179 16.553-2.4882 42.645-.92653 22.587 2.0473 28.558 11.727 28.558 9.6794 0 13.301-13.174 14.86-21.694 1.5588-8.5207 4.9435-14.057 6.0432-15.624 1.2937-1.8434 2.7465-3.3539 10.642-7.4195 9.037-4.6534 12.04-2.7857 15.23-3.7618z"
       fill="#dee0ed"
       fill-opacity=".99076"
       id="path1006" />
    <path
       d="m57.095 78.103c-3.5827 2.9282-10.379 4.5617-15.382 3.1089 0 0-4.2271 2.9438-11.279 3.0937-8.8558.18829-14.282-2.3301-17.829-5.0628-3.5473-2.7328-9.0112-8.7324-10.638-14.618-1.6272-5.8861-1.4224-12.393-.1713-15.876 1.2511-3.4829 4.4646-9.5456 6.9487-11.747 5.7701-5.415 10.47-8.1903 17.379-8.2135 27.005 0 52.151.0054 79.085.0054 8.0037 0 11.533 2.6951 16.036 6.7062 6.4146 5.7136 9.7522 13.033 9.7522 20.655s-2.54 14.441-8.1645 20.066c-5.6246 5.6246-13.243 8.0447-18.402 8.0447-5.1586 0-10.543-1.3095-11.846-1.8951-1.3029-.58558-2.354-1.19-2.354-1.19-6.3694 2.4258-11.468.95154-15.422-2.9706z"
       fill="#dee0ed"
       fill-opacity=".9986"
       id="path1008" />
    <path
       d="m30.824 31.975s-4.1806.03408-5.478.19398-7.7725.94355-13.279 6.1041c-5.5062 5.1605-8.7038 12.689-7.9222 20.368.78156 7.6784 4.7189 12.195 6.1607 13.874 1.4418 1.6785 7.0104 5.802 9.4764 6.4777 2.432.66638 5.0433 1.9269 11.502 1.4516 3.3072-.24339 5.6746-1.3692 5.9114-1.4732 1.0711-.47055-.15032-1.6482-1.1593-4.0469-.65718-1.5623 23.961-4.2658 23.803-3.098-.14471 1.0697-.36399 2.2871.01165 2.2871.61941 0 10.598.09117 12.154.09117.24926 0 .20079-1.0535-.0058-2.2668-.21978-1.2907 27.439-6.1524 23.824 3.0602-.83819 2.1356-2.0163 3.2373-1.7632 3.5623.79038 1.0147 6.7232 1.9258 7.5502 1.9791 1.9188.10504 6.0585-.29296 8.2822-.89003 2.6272-.70539 4.912-1.6858 6.107-2.5858 2.2269-1.6771 5.1676-3.9018 6.4229-5.6169 1.2549-1.7147 1.8784-2.5639 1.8658-2.6423l.4361-.78973c.10839-.04176 1.7565-3.4336 2.0972-4.9163.34067-1.4827 1.0247-3.618.97113-6.5012-.0536-2.8832-.73397-7.9013-2.2029-10.389-1.4689-2.4874-2.3667-4.5375-5.0938-7.3521s-4.6526-3.6128-7.2806-4.8507c-2.6279-1.2379-6.7591-1.8326-7.5021-1.8681-.74299-.0355-3.5179-.14294-3.5179-.14294z"
       fill="none"
       id="path1010" />
  </g>
  <g
     transform="translate(1.9107 -9.4731)"
     id="g1040">
    <g
       stroke="#000"
       stroke-width=".2"
       id="g1024">
      <circle
         cx="84.308"
         cy="70.081"
         fill="url(#b)"
         r="12.458"
         id="circle1014" />
      <circle
         cx="47.515"
         cy="70.081"
         fill="url(#c)"
         r="12.458"
         id="circle1016" />
      <path
         d="m24.839 38.672 4.8816-.008s.56449-.000293 1.1019.57159c.56754.56623.61837 1.1443.61837 1.1443l.0085 5.2827s-.0039.13329.09678.22704c.10067.09374.19644.08658.19644.08658l5.2937.0203s.71688.07117 1.1909.54517c.47401.47402.59729 1.2289.59729 1.2289v4.8147s.07765.5975-.53344 1.2138c-.67198.67774-1.208.61257-1.208.61257h-5.3165s-.04655-.05012-.17592.07925-.13444.19596-.13444.19596v5.149s.06408.61999-.50864 1.3151c-.57273.69514-1.3069.65338-1.3069.65338h-4.7969s-.62608.01199-1.2279-.58981c-.6018-.6018-.61186-1.1555-.61186-1.1555v-5.2959s-.02051-.14512-.08015-.21214c-.09208-.10347-.22279-.1477-.22279-.1477l-5.1599.02538s-.67596.01704-1.2409-.54786c-.56486-.56491-.59301-1.1946-.59301-1.1946v-4.909s.01451-.54959.61114-1.1462c.59662-.59662 1.2614-.65993 1.2614-.65993h5.1442s.10717-.0066.17788-.08637c.09654-.10897.10872-.21147.10872-.21147v-5.1108s.0078-.65724.60364-1.2531c.59585-.59585 1.2246-.63718 1.2246-.63718z"
         fill="#101011"
         id="path1022" />
    </g>
    <path
       d="m24.877 39.201c-.95281.1627-1.5237 1.1636-1.3359 2.0828-.03539 1.5453.07066 3.1114-.05273 4.6438-.37037.91727-1.5141.46709-2.2637.57227-1.2838.04753-2.5944-.09554-3.8613.07227-.84083.28778-1.3063 1.1783-1.127 2.0383.04023 1.4274-.07979 2.8744.05859 4.2898.25922.89918 1.2582 1.1235 2.0734.99409 1.5127.02659 3.0539-.08195 4.5496.02544.95106.38131.52202 1.5639.61523 2.3438.03778 1.3244-.07479 2.6676.05469 3.9805.30638.84485 1.2342 1.1818 2.0676 1.0312 1.4186-.02902 2.8487.05705 4.2605-.04102.97293-.30539 1.1153-1.4306 1.0117-2.2984.03211-1.4882-.06371-2.9981.04687-4.473.29719-.78878 1.198-.56252 1.8594-.58008 1.4811-.02315 2.9717.04486 4.4473-.03125.77234-.26244 1.17-1.0859 1.0137-1.8656-.0469-1.4659.09361-2.9583-.06976-4.4078-.21002-.96453-1.2927-1.1677-2.1271-1.0561-1.536-.03931-3.0903.05387-4.6156-.06306-.90591-.38936-.45586-1.539-.56474-2.2969-.04694-1.3176.08466-2.6606-.07003-3.9629-.28494-.7399-1.0639-1.1736-1.8445-1.0047-1.3754.0022-2.7508.0045-4.1262.0067z"
       fill="#101011"
       filter="url(#d)"
       stroke="#1f1f1f"
       stroke-width=".2"
       id="path1026" />
    <g
       stroke="#000"
       id="g1038">
      <circle
         cx="27.219"
         cy="50.231"
         fill="#161617"
         r="2.8519"
         stroke-width=".2"
         id="circle1028" />
      <g
         stroke-linecap="square"
         id="g1036">
        <path
           d="m75.661 45.011h-19.629c-.02875-.0011-.05598 0-.08268 0-2.5464.01982-4.6001 2.0793-4.6002 4.6132.000529 2.5336 2.0541 4.5928 4.6002 4.6126.03123.0011.06368 0 .0925 0h19.798c2.5486-.01675 4.6058-2.0827 4.6059-4.6173.000096-2.5466-1.9965-4.4998-4.555-4.6074-.08131-.0024-.16137-.0013-.22977-.0011z"
           fill="#c0c2ce"
           stroke-width=".19952"
           id="path1030"
           style="stroke:none;fill:#a2a2ac;fill-opacity:1" />
        <path
           d="m56.471 46.014h19.204c.02657-.000846.05173 0 .0764 0 2.6575.0122 3.7425 2.1187 3.6955 3.6093-.02958 1.6011-1.2067 3.5436-3.6955 3.6089-.02886.000846-.05884 0-.08548 0h-19.36c-2.355-.01311-3.8331-2.1814-3.8526-3.6305-.07122-1.7455 1.3335-3.5989 3.8055-3.5868.07514-.0019.14912-.001.21232-.000847z"
           fill="#a2a2ac"
           stroke-width=".16964"
           id="path1032"
           style="stroke:none;fill:#c0c2ce;fill-opacity:1" />
      </g>
    </g>
  </g>
  <g
     transform="translate(1.9107 -9.4731)"
     id="g1048">
    <circle
       cx="26.889"
       cy="73.55"
       fill="#cdd3e3"
       r="2.99"
       stroke="#000"
       stroke-linecap="square"
       stroke-width=".2"
       id="circle1042" />
    <circle
       cx="26.889"
       cy="73.219"
       fill="#cdd3e3"
       r="2.99"
       stroke="#000"
       stroke-linecap="square"
       stroke-width=".2"
       id="circle1044" />
    <path
       d="m26.942 70.963.52881 1.5948 1.6802.0101-1.3534.99576.50961 1.6011-1.3652-.97943-1.3652.97943.50961-1.6011-1.3534-.99576 1.6802-.01009z"
       fill="#78787f"
       id="path1046" />
  </g>
  <g
     stroke="#000"
     id="g1064">
    <g
       fill="#29292b"
       stroke-linecap="square"
       stroke-width=".11562"
       id="g1058">
      <path
         d="m62.8707 65.8119h1.8342v1.8342h-1.8342z"
         id="path1050"
         style="stroke:none" />
      <path
         d="m65.5507 65.8119h1.8342v1.8342h-1.8342z"
         id="path1052"
         style="stroke-width:0.11562658;stroke-miterlimit:4;stroke-dasharray:none;stroke:none" />
      <path
         d="m68.2307 65.8119h1.8342v1.8342h-1.8342z"
         id="path1054"
         style="stroke:none" />
      <path
         d="m70.9107 65.8119h1.8342v1.8342h-1.8342z"
         id="path1056"
         style="stroke:none" />
    </g>
    <path
       d="m38.175 16.898c-.95934-1.9363-2.1005-3.9404-3.8392-5.2235-1.7165-1.2667-3.9117-2.1015-6.0449-2.1015-2.1333 0-4.3285.83478-6.045 2.1015-1.7387 1.2831-2.9064 3.2744-3.8392 5.2235-.98119 2.0502-2.8061 6.5914-1.7458 6.5914 0 0 4.1617-1.2613 11.541-1.2613h11.541c.6366 0-.74631-3.6706-1.5685-5.33z"
       fill="#dee0ed"
       fill-opacity=".9986"
       stroke-linecap="round"
       stroke-linejoin="round"
       stroke-width=".2"
       transform="translate(1.9107 -9.4731)"
       id="path1060" />
    <path
       d="m93.619 16.898c.95934-1.9363 2.1005-3.9404 3.8392-5.2235 1.7165-1.2667 3.9117-2.1015 6.0449-2.1015 2.1333 0 4.3285.83478 6.045 2.1015 1.7387 1.2831 2.8983 3.2782 3.8392 5.2235.9598 1.9845 2.8061 6.3785 1.7458 6.3785 0 0-6.9483-1.0485-11.541-1.0485h-11.541c-.6366 0 .74631-3.6706 1.5685-5.33z"
       fill="#dee0ed"
       fill-opacity=".9986"
       stroke-linecap="round"
       stroke-linejoin="round"
       stroke-width=".2"
       transform="translate(1.9107 -9.4731)"
       id="path1062" />
  </g>
  <text
     fill="#78787f"
     font-family="sans-serif"
     font-size="4.5595"
     stroke-width=".11399"
     transform="translate(.93074 -10.144)"
     x="101.08566"
     y="21.454077"
     id="text1068"><tspan
       fill="#78787f"
       font-family="sans-serif"
       font-size="4.5595"
       stroke-width=".11399"
       x="101.08566"
       y="21.454077"
       id="tspan1066">R2</tspan></text>
  <text
     fill="#78787f"
     font-family="sans-serif"
     font-size="4.5595"
     stroke-width=".11399"
     transform="translate(-74.076 -10.144)"
     x="101.08566"
     y="21.454077"
     id="text1072"><tspan
       fill="#78787f"
       font-family="sans-serif"
       font-size="4.5595"
       stroke-width=".11399"
       x="101.08566"
       y="21.454077"
       id="tspan1070">L2</tspan></text>
  <g
     stroke="#000080"
     transform="translate(1.9107 -9.4731)"
     id="g1114">
    <g
       fill="#000080"
       font-family="sans-serif"
       stroke-width="0"
       id="g1086"
       style="fill:#4d4d4d"
       transform="translate(-0.33183084,1.5438268)">
      <text
         font-size="1.8143px"
         x="56.118652"
         y="56.100304"
         id="text1076"
         style="font-style:normal;font-variant:normal;font-weight:bold;font-stretch:normal;font-size:1.8143px;font-family:sans-serif;-inkscape-font-specification:'sans-serif, Bold';font-variant-ligatures:normal;font-variant-caps:normal;font-variant-numeric:normal;font-variant-east-asian:normal;fill:#4d4d4d"><tspan
           fill="#000080"
           stroke="#000080"
           stroke-width="0"
           x="56.118652"
           y="56.100304"
           id="tspan1074"
           style="font-style:normal;font-variant:normal;font-weight:bold;font-stretch:normal;font-size:1.8143px;font-family:sans-serif;-inkscape-font-specification:'sans-serif, Bold';font-variant-ligatures:normal;font-variant-caps:normal;font-variant-numeric:normal;font-variant-east-asian:normal;fill:#4d4d4d">- select</tspan></text>
      <text
         font-size="1.8143px"
         x="69.22612"
         y="56.100304"
         id="text1080"
         style="font-style:normal;font-variant:normal;font-weight:bold;font-stretch:normal;font-size:1.8143px;font-family:sans-serif;-inkscape-font-specification:'sans-serif, Bold';font-variant-ligatures:normal;font-variant-caps:normal;font-variant-numeric:normal;font-variant-east-asian:normal;fill:#4d4d4d"><tspan
           fill="#000080"
           stroke="#000080"
           stroke-width="0"
           x="69.22612"
           y="56.100304"
           id="tspan1078"
           style="font-style:normal;font-variant:normal;font-weight:bold;font-stretch:normal;font-size:1.8143px;font-family:sans-serif;-inkscape-font-specification:'sans-serif, Bold';font-variant-ligatures:normal;font-variant-caps:normal;font-variant-numeric:normal;font-variant-east-asian:normal;fill:#4d4d4d">+ start</tspan></text>
    </g>
    <path
       d="m52.779 42.268h25.744"
       fill="none"
       stroke-width=".2"
       id="path1088"
       style="stroke-width:0.20003133;stroke-miterlimit:4;stroke-dasharray:none;fill:#4d4d4d;stroke:#333333" />
    <g
       fill="#000080"
       font-family="sans-serif"
       stroke-width="0"
       id="g1112"
       transform="matrix(1.1893114,0,0,1.1893114,-14.865294,-9.0747629)">
      <text
         font-size="2.6458px"
         x="72.066048"
         y="41.238453"
         id="text1092"
         style="font-size:2.6458px"><tspan
           fill="#000080"
           font-family="sans-serif"
           font-size="2.6458px"
           stroke="#000080"
           stroke-width="0"
           x="72.066048"
           y="41.238453"
           id="tspan1090"
           style="font-style:normal;font-variant:normal;font-weight:normal;font-stretch:normal;font-size:2.6458px;font-family:sans-serif;-inkscape-font-specification:'sans-serif, Normal';font-variant-ligatures:normal;font-variant-caps:normal;font-variant-numeric:normal;font-variant-east-asian:normal;fill:#4d4d4d">Pro 2</tspan></text>
    </g>
    <rect
       style="fill:#c0c2ce;fill-opacity:1;stroke:#000000;stroke-width:0.199767;stroke-linecap:round;stroke-linejoin:round;stroke-miterlimit:4;stroke-dasharray:none;stroke-opacity:1;paint-order:markers stroke fill"
       id="rect2043"
       width="4.779377"
       height="2.2534885"
       x="63.416283"
       y="68.872375"
       ry="0.8580153" />
  </g>
  <g
     style="clip-rule:evenodd;fill:#4d4d4d;fill-rule:evenodd;image-rendering:optimizeQuality;shape-rendering:geometricPrecision;text-rendering:geometricPrecision"
     id="g4846"
     transform="matrix(0.04566722,0,0,0.04566722,54.767427,28.179305)">
    <g
       id="图层_x0020_1"
       inkscape:label="图层 1"
       inkscape:groupmode="layer"
       style="fill:#4d4d4d">
      <metadata
         id="CorelCorpID_0Corel-Layer" />
      <g
         id="_1591305313696"
         style="fill:#4d4d4d">
        <path
           class="fil0"
           d="M 26,23 24,21 C 23,21 23,20 24,20 30,19 34,15 34,10 34,4 27,0 18,0 7,0 1,5 1,12 c 0,5 3,9 8,14 l 2,1 c 0,0 0,1 -1,1 -6,1 -10,5 -10,11 0,7 7,12 16,12 11,0 18,-6 18,-14 0,-5 -2,-9 -8,-14 z m 164,10 v 0 c 0,-12 -8,-18 -16,-18 -9,0 -17,6 -17,18 0,12 8,18 17,18 8,0 16,-6 16,-18 z M 18,2 c 3,0 5,3 5,9 0,6 0,8 -1,8 -1,0 -1,0 -1,-1 L 17,15 C 14,12 13,10 13,7 13,4 15,2 18,2 Z m -1,47 c -4,0 -6,-5 -6,-12 0,-5 1,-8 2,-8 0,0 1,1 1,1 6,6 8,8 8,12 0,4 -2,7 -5,7 z m 21,-7 c 0,4 -2,5 -3,6 -1,0 -1,0 -1,1 v 0 c 0,0 0,1 1,1 h 20 c 12,0 17,-5 17,-13 0,-8 -5,-12 -13,-12 -1,0 -1,0 -1,0 0,-1 0,-1 1,-1 8,0 12,-4 12,-11 C 71,5 65,1 56,1 H 35 c -1,0 -1,0 -1,1 v 0 c 0,1 0,1 1,1 1,1 3,2 3,6 z M 52,3 c 4,0 5,4 5,10 0,7 -1,11 -5,11 0,0 -1,-1 -1,-1 V 4 c 0,-1 1,-1 1,-1 z m 0,45 c 0,0 -1,-1 -1,-1 V 27 c 0,-1 1,-1 1,-1 4,0 6,4 6,11 0,6 -2,11 -6,11 z M 82,16 c 5,0 8,-3 8,-7 0,-5 -3,-8 -8,-8 -4,0 -7,3 -7,8 0,4 3,7 7,7 z m 31,24 v 0 c -1,0 -1,0 -1,1 0,1 -1,2 -2,2 -2,0 -2,-1 -2,-3 V 19 h 4 c 1,0 1,-1 1,-1 v -1 c 0,-1 0,-1 -1,-1 h -4 V 6 c 0,-1 -1,-1 -1,-1 h -1 c 0,0 -1,0 -1,0 -2,5 -7,9 -12,11 -1,1 -1,1 -1,1 v 1 c 0,0 1,1 1,1 h 1 v 22 c 0,6 4,10 10,10 6,0 10,-4 10,-10 0,-1 0,-1 -1,-1 z M 92,48 C 90,47 90,46 90,42 V 19 c 0,-1 -1,-2 -2,-1 -4,1 -10,1 -14,1 -1,0 -1,1 -1,1 v 1 c 0,0 0,1 1,1 1,0 2,1 2,5 v 15 c 0,3 -1,5 -3,6 0,0 0,0 0,1 v 0 c 0,0 0,1 1,1 h 18 c 0,0 1,-1 1,-1 v 0 c 0,-1 -1,-1 -1,-1 z M 116,1 c -1,0 -2,0 -2,1 v 0 c 0,1 1,1 1,1 2,1 3,2 3,6 v 33 c 0,4 -1,5 -3,6 0,0 -1,0 -1,1 v 0 c 0,0 1,1 2,1 h 19 c 11,0 20,-9 20,-25 0,-15 -9,-24 -20,-24 z m 24,24 c 0,17 -2,23 -7,23 -1,0 -1,-1 -1,-1 V 4 c 0,-1 0,-1 1,-1 5,0 7,6 7,22 z m 34,24 c -2,0 -3,-2 -3,-16 0,-14 1,-16 3,-16 2,0 3,2 3,16 0,14 -1,16 -3,16 z"
           id="path4830"
           style="fill:#4d4d4d" />
        <path
           class="fil0"
           d="m 191,8 c 1,0 1,0 1,-1 0,-1 0,-1 -1,-1 h -2 c 0,0 0,0 0,0 v 2 c 0,0 0,0 0,0 z m -3,5 V 5 c 0,-1 0,-1 0,-1 h 3 c 1,0 3,1 3,3 0,1 -1,2 -2,3 0,0 0,0 0,0 0,0 0,0 0,0 l 1,3 c 1,0 0,0 0,0 h -1 c 0,0 0,0 0,0 l -2,-3 c 0,0 0,0 0,0 h -1 c 0,0 0,0 0,0 v 3 c 0,0 0,0 0,0 h -1 c 0,0 0,0 0,0 z m 8,-4 c 0,-4 -2,-6 -6,-6 -3,0 -6,2 -6,6 0,3 3,6 6,6 4,0 6,-3 6,-6 z m -13,0 c 0,-5 3,-8 7,-8 5,0 8,3 8,8 0,4 -3,7 -8,7 -4,0 -7,-3 -7,-7 z"
           id="path4832"
           style="fill:#4d4d4d" />
      </g>
    </g>
  </g>
  <circle
     style="fill:#29292b;fill-opacity:1;stroke:none;stroke-width:0.309419;stroke-linecap:round;stroke-linejoin:round;stroke-miterlimit:4;stroke-dasharray:none;stroke-opacity:1;paint-order:markers stroke fill"
     id="path3471-6"
     cx="65.657471"
     cy="55.846325"
     r="0.4018032" />
  <circle
     style="fill:#29292b;fill-opacity:1;stroke:none;stroke-width:0.309419;stroke-linecap:round;stroke-linejoin:round;stroke-miterlimit:4;stroke-dasharray:none;stroke-opacity:1;paint-order:markers stroke fill"
     id="path3471-6-7"
     cx="67.716667"
     cy="55.846325"
     r="0.4018032" />
  <circle
     style="fill:#29292b;fill-opacity:1;stroke:none;stroke-width:0.309419;stroke-linecap:round;stroke-linejoin:round;stroke-miterlimit:4;stroke-dasharray:none;stroke-opacity:1;paint-order:markers stroke fill"
     id="path3471-6-7-4"
     cx="69.775864"
     cy="55.846325"
     r="0.4018032" />
</svg>
